<svg width="24" height="25" viewBox="0 0 24 25" fill="none" xmlns="http://www.w3.org/2000/svg">
<path d="M21.97 18.6894C21.97 19.0494 21.89 19.4194 21.72 19.7794C21.55 20.1394 21.33 20.4794 21.04 20.7994C20.55 21.3394 20.01 21.7294 19.4 21.9794C18.8 22.2294 18.15 22.3594 17.45 22.3594C16.43 22.3594 15.34 22.1194 14.19 21.6294C13.04 21.1394 11.89 20.4794 10.75 19.6494C9.58811 18.7995 8.49169 17.8635 7.47 16.8494C6.45877 15.8314 5.5261 14.7383 4.68 13.5794C3.86 12.4394 3.2 11.2994 2.72 10.1694C2.24 9.02938 2 7.93937 2 6.89937C2 6.21937 2.12 5.56938 2.36 4.96938C2.6 4.35938 2.98 3.79938 3.51 3.29938C4.15 2.66938 4.85 2.35938 5.59 2.35938C5.87 2.35938 6.15 2.41938 6.4 2.53938C6.66 2.65938 6.89 2.83938 7.07 3.09938L9.39 6.36938C9.57 6.61938 9.7 6.84938 9.79 7.06938C9.88 7.27938 9.93 7.48938 9.93 7.67938C9.93 7.91938 9.86 8.15937 9.72 8.38937C9.59 8.61937 9.4 8.85937 9.16 9.09937L8.4 9.88937C8.29 9.99937 8.24 10.1294 8.24 10.2894C8.24 10.3694 8.25 10.4394 8.27 10.5194C8.3 10.5994 8.33 10.6594 8.35 10.7194C8.53 11.0494 8.84 11.4794 9.28 11.9994C9.73 12.5194 10.21 13.0494 10.73 13.5794C11.27 14.1094 11.79 14.5994 12.32 15.0494C12.84 15.4894 13.27 15.7894 13.61 15.9694C13.66 15.9894 13.72 16.0194 13.79 16.0494C13.87 16.0794 13.95 16.0894 14.04 16.0894C14.21 16.0894 14.34 16.0294 14.45 15.9194L15.21 15.1694C15.46 14.9194 15.7 14.7294 15.93 14.6094C16.16 14.4694 16.39 14.3994 16.64 14.3994C16.83 14.3994 17.03 14.4394 17.25 14.5294C17.47 14.6194 17.7 14.7494 17.95 14.9194L21.26 17.2694C21.52 17.4494 21.7 17.6594 21.81 17.9094C21.91 18.1594 21.97 18.4094 21.97 18.6894Z" stroke="white" stroke-width="1.5" stroke-miterlimit="10"/>
</svg>
