<svg width="19" height="19" viewBox="0 0 19 19" fill="none" xmlns="http://www.w3.org/2000/svg">
<path d="M10.6531 11.9398L9.26562 13.3273C8.97312 13.6198 6.90812 12.4198 6.60812 12.1348C6.52562 12.0523 6.44313 11.9773 6.36063 11.8948C5.6022 11.1314 4.9027 10.3115 4.26813 9.44234C3.65313 8.58734 3.15813 7.73234 2.79813 6.88484C2.44563 6.02984 2.26562 5.21234 2.26562 4.43234C2.26562 3.92234 2.35562 3.43484 2.53562 2.98484C2.71562 2.52734 3.00062 2.10734 3.39812 1.73234C3.87812 1.25984 4.40313 1.02734 4.95813 1.02734C5.16813 1.02734 5.37813 1.07234 5.56563 1.16234C5.76063 1.25234 5.93313 1.38734 6.06813 1.58234L7.80813 4.03484C7.94313 4.22234 8.04062 4.39484 8.10812 4.55984C8.17562 4.71734 8.21313 4.87484 8.21313 5.01734C8.21313 5.19734 8.16062 5.37734 8.05562 5.54984C7.95813 5.72234 7.81562 5.90234 7.63562 6.08234L7.06562 6.67484C6.98312 6.75734 6.94562 6.85484 6.94562 6.97484C6.94562 7.03484 6.95313 7.08734 6.96813 7.14734C6.99063 7.20734 7.01313 7.25234 7.02813 7.29734C7.16313 7.54484 7.39563 7.86734 7.72563 8.25734C8.06313 8.64734 8.42312 9.04484 8.81312 9.44234C8.88812 9.51734 8.97062 9.59234 9.04562 9.66734C9.34562 9.95984 10.9531 11.6398 10.6531 11.9398ZM17.2431 13.2748C17.2421 13.5579 17.1781 13.8372 17.0556 14.0923C16.9281 14.3623 16.7631 14.6173 16.5456 14.8573C16.1781 15.2623 15.7731 15.5548 15.3156 15.7423C15.3081 15.7423 15.3006 15.7498 15.2931 15.7498C14.8506 15.9298 14.3706 16.0273 13.8531 16.0273C13.0881 16.0273 12.2706 15.8473 11.4081 15.4798C10.5456 15.1123 9.68313 14.6173 8.82812 13.9948C8.53562 13.7773 6.88562 12.3673 6.60812 12.1348L9.06062 9.68234C9.27062 9.83984 10.8156 11.1523 10.9731 11.2348C11.0106 11.2498 11.0556 11.2723 11.1081 11.2948C11.1681 11.3173 11.2281 11.3248 11.2956 11.3248C11.4231 11.3248 11.5206 11.2798 11.6031 11.1973L12.1731 10.6348C12.3606 10.4473 12.5406 10.3048 12.7131 10.2148C12.8856 10.1098 13.0581 10.0573 13.2456 10.0573C13.3881 10.0573 13.5381 10.0873 13.7031 10.1548C13.8681 10.2223 14.0406 10.3198 14.2281 10.4473L16.7106 12.2098C16.9056 12.3448 17.0406 12.5023 17.1231 12.6898C17.1981 12.8773 17.2431 13.0648 17.2431 13.2748Z" fill="white"/>
</svg>
