<svg width="24" height="25" viewBox="0 0 24 25" fill="none" xmlns="http://www.w3.org/2000/svg">
<path d="M20.4376 19.4187C14.8131 19.4187 9.18861 19.4187 3.5641 19.4187C3.38052 19.3601 3.18523 19.325 3.01337 19.239C2.32983 18.8992 2.00564 18.325 2.00174 17.5712C2.00174 15.7042 2.00174 13.8372 2.00174 11.9662C2.00174 10.3726 1.99783 8.77509 2.00174 7.18148C2.00564 6.14251 2.73995 5.36523 3.76721 5.36523C9.25501 5.35742 14.7428 5.35742 20.2306 5.36523C20.8087 5.36523 21.3087 5.59178 21.6368 6.07611C21.8047 6.32609 21.8828 6.63465 22 6.91979C22 10.564 22 14.2121 22 17.8563C21.9883 17.8798 21.9766 17.9032 21.9727 17.9266C21.9024 18.3836 21.6797 18.7508 21.3204 19.0398C21.0626 19.2507 20.754 19.3445 20.4376 19.4187ZM4.03281 6.53701C4.06406 6.57997 4.07577 6.5956 4.0914 6.60731C6.30214 8.81415 8.5168 11.021 10.7393 13.2161C10.9228 13.3997 11.1611 13.552 11.4033 13.6419C12.1298 13.9114 12.7703 13.72 13.3133 13.181C15.4967 11.0093 17.6801 8.83759 19.8596 6.6659C19.8947 6.63075 19.926 6.5956 19.9767 6.54091C14.6491 6.53701 9.35657 6.53701 4.03281 6.53701ZM14.9342 13.2005C14.6491 13.4895 14.3874 13.759 14.1218 14.0285C13.5828 14.5715 12.9344 14.8878 12.1649 14.9269C11.2705 14.9738 10.5088 14.6613 9.87996 14.0285C9.61436 13.7629 9.35266 13.4934 9.06753 13.2044C7.3958 14.9113 5.7475 16.5908 4.13436 18.2352C9.35657 18.2352 14.6491 18.2352 19.8635 18.2352C18.2542 16.5869 16.6059 14.9035 14.9342 13.2005ZM3.18523 17.4111C4.86086 15.7042 6.51306 14.0207 8.11058 12.392C6.50525 10.7632 4.85305 9.08366 3.18523 7.3885C3.18523 10.732 3.18523 14.052 3.18523 17.4111ZM20.8165 17.4228C20.8165 14.0442 20.8165 10.7241 20.8165 7.35334C19.1292 9.06804 17.473 10.7476 15.8677 12.3802C17.4887 14.0324 19.137 15.712 20.8165 17.4228Z" fill="white"/>
</svg>
