<svg width="25" height="25" viewBox="0 0 25 25" fill="none" xmlns="http://www.w3.org/2000/svg">
<path d="M12.8124 13.6253C13.2221 13.6253 13.6278 13.5446 14.0064 13.3878C14.3849 13.231 14.7288 13.0011 15.0186 12.7114C15.3083 12.4217 15.5381 12.0778 15.6949 11.6992C15.8517 11.3207 15.9324 10.915 15.9324 10.5053C15.9324 10.0955 15.8517 9.68982 15.6949 9.31128C15.5381 8.93275 15.3083 8.5888 15.0186 8.29908C14.7288 8.00936 14.3849 7.77954 14.0064 7.62275C13.6278 7.46596 13.2221 7.38525 12.8124 7.38525C11.9849 7.38525 11.1913 7.71397 10.6062 8.29908C10.0211 8.88419 9.69238 9.67778 9.69238 10.5053C9.69238 11.3327 10.0211 12.1263 10.6062 12.7114C11.1913 13.2965 11.9849 13.6253 12.8124 13.6253Z" stroke="white" stroke-width="1.5"/>
<path d="M4.4327 8.68531C6.4027 0.0253148 19.2327 0.035315 21.1927 8.69531C22.3427 13.7753 19.1827 18.0753 16.4127 20.7353C15.4448 21.6688 14.1525 22.1905 12.8077 22.1905C11.4629 22.1905 10.1706 21.6688 9.2027 20.7353C6.4427 18.0753 3.2827 13.7653 4.4327 8.68531Z" stroke="white" stroke-width="1.5"/>
</svg>
