<svg width="36" height="37" viewBox="0 0 36 37" fill="none" xmlns="http://www.w3.org/2000/svg">
<path d="M16.8746 0.359375C17.627 0.359375 18.3723 0.359375 19.1247 0.359375C19.7364 0.43672 20.3552 0.500003 20.9599 0.605473C24.342 1.18205 27.3303 2.59535 29.8968 4.87352C33.0257 7.65795 34.9875 11.1244 35.7258 15.2589C35.8453 15.9128 35.9086 16.5737 36 17.2347C36 17.9871 36 18.7324 36 19.4847C35.9508 19.9137 35.9016 20.3426 35.8383 20.7715C35.2828 24.6739 33.6796 28.0912 30.8952 30.8756C26.2756 35.5022 20.6927 37.2249 14.2801 35.9593C9.91357 35.0874 6.36272 32.7741 3.67673 29.2232C0.568859 25.1098 -0.563194 20.4621 0.259478 15.3714C0.857146 11.6588 2.52358 8.4525 5.16035 5.77354C7.85337 3.02427 11.1089 1.30861 14.8988 0.633599C15.5527 0.521097 16.2207 0.450783 16.8746 0.359375ZM17.9786 26.5372C21.0372 26.5372 24.0959 26.5372 27.1545 26.5372C28.6733 26.5372 29.6014 25.602 29.6014 24.0762C29.6014 20.2723 29.6014 16.4612 29.6014 12.6573C29.6014 11.1033 28.6874 10.1822 27.1405 10.1822C21.0513 10.1822 14.9551 10.1822 8.86589 10.1822C7.32602 10.1822 6.40491 11.1104 6.40491 12.6573C6.40491 16.4401 6.43303 20.223 6.39084 24.0059C6.37678 25.3981 7.33305 26.5794 8.9573 26.5513C11.9597 26.5021 14.9691 26.5372 17.9786 26.5372Z" fill="#9B9B9B"/>
<path d="M17.9784 26.5371C14.969 26.5371 11.9595 26.502 8.94307 26.5512C7.31882 26.5793 6.36256 25.398 6.37662 24.0058C6.41881 20.2229 6.39068 16.4401 6.39068 12.6572C6.39068 11.1103 7.31179 10.1821 8.85166 10.1821C14.9408 10.1821 21.0371 10.1821 27.1262 10.1821C28.6661 10.1821 29.5872 11.1103 29.5872 12.6572C29.5872 16.4612 29.5872 20.2722 29.5872 24.0761C29.5872 25.602 28.6591 26.5301 27.1403 26.5371C24.0957 26.5442 21.0371 26.5371 17.9784 26.5371ZM27.738 12.9877C27.527 13.1494 27.3934 13.2548 27.2598 13.3673C24.4262 15.6174 21.5925 17.8674 18.7589 20.1175C18.1823 20.5745 17.8307 20.5745 17.2612 20.1175C14.3783 17.8323 11.5025 15.54 8.61963 13.2548C8.52822 13.1775 8.42978 13.1142 8.27509 12.9947C8.27509 13.1986 8.27509 13.3111 8.27509 13.4306C8.27509 16.9463 8.27509 20.462 8.27509 23.9777C8.27509 24.6176 8.34541 24.6949 8.97823 24.6949C14.9971 24.6949 21.023 24.6949 27.0419 24.6949C27.6747 24.6949 27.745 24.6246 27.745 23.9847C27.745 20.469 27.745 16.9534 27.745 13.4377C27.738 13.3181 27.738 13.1986 27.738 12.9877ZM10.1243 12.0525C10.2158 12.1439 10.272 12.2001 10.3283 12.2423C12.8033 14.2111 15.2854 16.1729 17.7534 18.1487C17.9573 18.3104 18.0698 18.2753 18.2597 18.1346C20.7136 16.1799 23.1746 14.2252 25.6356 12.2775C25.7129 12.2142 25.8114 12.1861 25.8957 12.1369C25.8676 12.1087 25.8325 12.0806 25.8043 12.0525C20.6011 12.0525 15.3909 12.0525 10.1243 12.0525Z" fill="white"/>
<path d="M27.738 12.9878C27.738 13.1987 27.738 13.3183 27.738 13.4308C27.738 16.9465 27.738 20.4622 27.738 23.9778C27.738 24.6177 27.6677 24.688 27.0348 24.688C21.016 24.688 14.9901 24.688 8.9712 24.688C8.34541 24.688 8.26807 24.6177 8.26807 23.9708C8.26807 20.4551 8.26807 16.9394 8.26807 13.4237C8.26807 13.3112 8.26807 13.1917 8.26807 12.9878C8.42276 13.1003 8.5212 13.1706 8.6126 13.248C11.4955 15.5332 14.3713 17.8254 17.2542 20.1106C17.8237 20.5676 18.1753 20.5676 18.7519 20.1106C21.5855 17.8605 24.4192 15.6105 27.2528 13.3605C27.3934 13.255 27.527 13.1495 27.738 12.9878Z" fill="#9B9B9B"/>
<path d="M10.1245 12.0525C15.391 12.0525 20.6013 12.0525 25.8045 12.0525C25.8326 12.0806 25.8678 12.1087 25.8959 12.1369C25.8115 12.1791 25.7131 12.2142 25.6357 12.2775C23.1748 14.2252 20.7138 16.1799 18.2598 18.1346C18.077 18.2823 17.9575 18.3175 17.7536 18.1487C15.2855 16.1729 12.8035 14.2111 10.3284 12.2423C10.2722 12.2001 10.223 12.1439 10.1245 12.0525Z" fill="#9B9B9B"/>
</svg>
