<svg width="18" height="19" viewBox="0 0 18 19" fill="none" xmlns="http://www.w3.org/2000/svg">
<g clip-path="url(#clip0_376_214)">
<path d="M16.5 16.5273L15 15.0273M8.625 15.7773C9.56067 15.7773 10.4872 15.5931 11.3516 15.235C12.2161 14.8769 13.0015 14.3521 13.6631 13.6905C14.3248 13.0289 14.8496 12.2434 15.2076 11.379C15.5657 10.5145 15.75 9.58801 15.75 8.65234C15.75 7.71668 15.5657 6.79017 15.2076 5.92572C14.8496 5.06128 14.3248 4.27583 13.6631 3.61421C13.0015 2.95259 12.2161 2.42777 11.3516 2.0697C10.4872 1.71164 9.56067 1.52734 8.625 1.52734C6.73533 1.52734 4.92306 2.27801 3.58686 3.61421C2.25067 4.9504 1.5 6.76268 1.5 8.65234C1.5 10.542 2.25067 12.3543 3.58686 13.6905C4.92306 15.0267 6.73533 15.7773 8.625 15.7773Z" stroke="white" stroke-width="1.5" stroke-linecap="round" stroke-linejoin="round"/>
</g>
<defs>
<clipPath id="clip0_376_214">
<rect width="18" height="18" fill="white" transform="translate(0 0.0273438)"/>
</clipPath>
</defs>
</svg>
