<svg width="31" height="31" viewBox="0 0 31 31" fill="none" xmlns="http://www.w3.org/2000/svg">
<g filter="url(#filter0_d_1283_3977)">
<rect x="26.7998" y="0.978455" width="22" height="22" rx="11" transform="rotate(90 26.7998 0.978455)" fill="#1B1A1A" shape-rendering="crispEdges"/>
<path d="M15.1774 15.557L9.01947 9.39904C8.87173 9.2513 8.79785 9.07189 8.79785 8.86082C8.79785 8.64975 8.87173 8.47034 9.01947 8.32259L9.74766 7.61023C9.89541 7.46249 10.0722 7.38861 10.278 7.38861C10.4838 7.38861 10.6658 7.46249 10.8241 7.61023L15.7156 12.4859L20.6072 7.61023C20.7655 7.46249 20.9475 7.38861 21.1533 7.38861C21.3591 7.38861 21.5359 7.46249 21.6836 7.61023L22.4118 8.32259C22.5596 8.47034 22.6334 8.64975 22.6334 8.86082C22.6334 9.07189 22.5596 9.2513 22.4118 9.39904L16.2539 15.557C16.1061 15.7047 15.9267 15.7786 15.7156 15.7786C15.5046 15.7786 15.3252 15.7047 15.1774 15.557Z" fill="white"/>
</g>
<defs>
<filter id="filter0_d_1283_3977" x="0.799805" y="0.978455" width="30" height="30" filterUnits="userSpaceOnUse" color-interpolation-filters="sRGB">
<feFlood flood-opacity="0" result="BackgroundImageFix"/>
<feColorMatrix in="SourceAlpha" type="matrix" values="0 0 0 0 0 0 0 0 0 0 0 0 0 0 0 0 0 0 127 0" result="hardAlpha"/>
<feOffset dy="4"/>
<feGaussianBlur stdDeviation="2"/>
<feComposite in2="hardAlpha" operator="out"/>
<feColorMatrix type="matrix" values="0 0 0 0 0 0 0 0 0 0 0 0 0 0 0 0 0 0 0.25 0"/>
<feBlend mode="normal" in2="BackgroundImageFix" result="effect1_dropShadow_1283_3977"/>
<feBlend mode="normal" in="SourceGraphic" in2="effect1_dropShadow_1283_3977" result="shape"/>
</filter>
</defs>
</svg>
