<svg width="32" height="32" viewBox="0 0 32 32" fill="none" xmlns="http://www.w3.org/2000/svg">
<path d="M31.0312 11.8438C31.0312 11.3646 30.9271 10.9271 30.7188 10.5312C30.5104 10.1354 30.1979 9.79167 29.7812 9.5C29.5104 9.29167 29.2188 9.15104 28.9062 9.07812C28.5938 9.00521 28.2604 8.96875 27.9062 8.96875C27.7812 8.98958 27.6927 8.97396 27.6406 8.92188C27.5885 8.86979 27.5521 8.78125 27.5312 8.65625C27.5312 8.05208 27.4219 7.48958 27.2031 6.96875C26.9844 6.44792 26.6771 5.96875 26.2812 5.53125C25.5938 4.82292 24.9115 4.10417 24.2344 3.375C23.5573 2.64583 22.8646 1.92708 22.1562 1.21875C22.0104 1.07292 21.8542 0.942709 21.6875 0.828125C21.5208 0.713541 21.3438 0.604166 21.1562 0.5C20.8854 0.354166 20.6042 0.239584 20.3125 0.15625C20.0208 0.072916 19.7188 0.020834 19.4062 0H5.90625C5.71875 0.041666 5.53646 0.083334 5.35938 0.125C5.18229 0.166666 5.01042 0.25 4.84375 0.375C4.40625 0.666666 4.07292 1.02083 3.84375 1.4375C3.61458 1.85417 3.5 2.32292 3.5 2.84375C3.5 3.80208 3.5 4.75 3.5 5.6875C3.5 6.625 3.5 7.5625 3.5 8.5C3.5 8.72917 3.47917 8.86458 3.4375 8.90625C3.39583 8.94792 3.26042 8.96875 3.03125 8.96875H2.96875C2.11458 8.96875 1.40625 9.25521 0.84375 9.82812C0.28125 10.401 0 11.1042 0 11.9375C0 12.875 0 13.8021 0 14.7188C0 15.6562 0 16.5833 0 17.5C0 18.4167 0 19.3438 0 20.2812C0 21.1979 0 22.125 0 23.0625C0 23.1458 0 23.2292 0 23.3125C0 23.3958 0.0104167 23.4896 0.03125 23.5938C0.15625 24.3021 0.489583 24.8854 1.03125 25.3438C1.57292 25.8021 2.20833 26.0312 2.9375 26.0312C3.20833 26.0312 3.36979 26.0573 3.42188 26.1094C3.47396 26.1615 3.5 26.3333 3.5 26.625C3.5 27.0208 3.50521 27.4219 3.51562 27.8281C3.52604 28.2344 3.52083 28.6458 3.5 29.0625C3.45833 29.6667 3.65625 30.2865 4.09375 30.9219C4.53125 31.5573 5.13542 31.9167 5.90625 32H25.0938C25.2396 31.9792 25.3906 31.9531 25.5469 31.9219C25.7031 31.8906 25.8542 31.8333 26 31.75C26.5 31.4583 26.8802 31.099 27.1406 30.6719C27.401 30.2448 27.5312 29.75 27.5312 29.1875C27.5521 28.75 27.5573 28.3229 27.5469 27.9062C27.5365 27.4896 27.5312 27.0729 27.5312 26.6562C27.5312 26.3229 27.5521 26.1354 27.5938 26.0938C27.6354 26.0521 27.8229 26.0312 28.1562 26.0312C28.9479 26.0312 29.625 25.75 30.1875 25.1875C30.75 24.625 31.0312 23.9479 31.0312 23.1562C31.0312 22.2188 31.0312 21.2812 31.0312 20.3438C31.0521 19.3854 31.0625 18.4375 31.0625 17.5C31.0625 16.5625 31.0625 15.625 31.0625 14.6875C31.0625 13.75 31.0521 12.8021 31.0312 11.8438ZM1.96875 22.9062V12.0625C1.96875 11.6875 2.05729 11.4062 2.23438 11.2188C2.41146 11.0312 2.69792 10.9375 3.09375 10.9375H27.9688C28.3438 10.9375 28.625 11.0312 28.8125 11.2188C29 11.4062 29.0938 11.6771 29.0938 12.0312C29.0938 12.9479 29.0938 13.8646 29.0938 14.7812C29.0938 15.6979 29.0938 16.6094 29.0938 17.5156C29.0938 18.4219 29.0938 19.3333 29.0938 20.25C29.0938 21.1458 29.0938 22.0521 29.0938 22.9688C29.0938 23.3438 29 23.6198 28.8125 23.7969C28.625 23.974 28.3542 24.0625 28 24.0625C26.9583 24.0625 25.9167 24.0625 24.875 24.0625C23.8333 24.0625 22.7917 24.0625 21.75 24.0625C20.7083 24.0625 19.6667 24.0625 18.625 24.0625C17.5833 24.0625 16.5417 24.0625 15.5 24.0625H3.125C2.72917 24.0625 2.4375 23.974 2.25 23.7969C2.0625 23.6198 1.96875 23.3229 1.96875 22.9062ZM6.5625 1.875C7.58333 1.875 8.60417 1.875 9.625 1.875C10.6458 1.875 11.6667 1.875 12.6875 1.875C13.7083 1.875 14.7292 1.875 15.75 1.875C16.7708 1.875 17.7917 1.875 18.8125 1.875C19.2292 1.875 19.6198 1.95312 19.9844 2.10938C20.349 2.26562 20.6771 2.48958 20.9688 2.78125C21.5938 3.46875 22.2292 4.15104 22.875 4.82812C23.5208 5.50521 24.1667 6.17708 24.8125 6.84375C25.0625 7.11458 25.25 7.41146 25.375 7.73438C25.5 8.05729 25.5729 8.39583 25.5938 8.75C25.5938 8.875 25.5781 8.95833 25.5469 9C25.5156 9.04167 25.4375 9.0625 25.3125 9.0625C23.75 9.0625 22.1927 9.0625 20.6406 9.0625C19.0885 9.0625 17.5312 9.0625 15.9688 9.0625H15.5312C13.9062 9.0625 12.2865 9.0625 10.6719 9.0625C9.05729 9.0625 7.4375 9.0625 5.8125 9.0625C5.66667 9.0625 5.57292 9.03646 5.53125 8.98438C5.48958 8.93229 5.46875 8.84375 5.46875 8.71875C5.46875 7.76042 5.46875 6.80208 5.46875 5.84375C5.46875 4.88542 5.46875 3.92708 5.46875 2.96875C5.46875 2.61458 5.5625 2.34375 5.75 2.15625C5.9375 1.96875 6.20833 1.875 6.5625 1.875ZM24.5312 30.125C23.0312 30.125 21.5312 30.125 20.0312 30.125C18.5312 30.125 17.0312 30.125 15.5312 30.125C14.0312 30.125 12.5312 30.125 11.0312 30.125C9.53125 30.125 8.03125 30.125 6.53125 30.125C6.19792 30.125 5.9375 30.0312 5.75 29.8438C5.5625 29.6562 5.46875 29.3958 5.46875 29.0625C5.46875 28.5833 5.46875 28.1094 5.46875 27.6406C5.46875 27.1719 5.46875 26.6979 5.46875 26.2188C5.46875 26.0938 5.48958 26.0156 5.53125 25.9844C5.57292 25.9531 5.64583 25.9375 5.75 25.9375C7.375 25.9375 9.00521 25.9375 10.6406 25.9375C12.276 25.9375 13.9062 25.9375 15.5312 25.9375C17.1562 25.9375 18.7812 25.9375 20.4062 25.9375C22.0312 25.9375 23.6562 25.9375 25.2812 25.9375C25.4062 25.9375 25.4896 25.9583 25.5312 26C25.5729 26.0417 25.5938 26.125 25.5938 26.25C25.5938 26.7292 25.5938 27.2031 25.5938 27.6719C25.5938 28.1406 25.5938 28.6042 25.5938 29.0625C25.5938 29.4167 25.5 29.6823 25.3125 29.8594C25.125 30.0365 24.8646 30.125 24.5312 30.125ZM12.5938 20.8125C12.5938 21.1458 12.6875 21.401 12.875 21.5781C13.0625 21.7552 13.3229 21.8438 13.6562 21.8438C13.9479 21.8438 14.2396 21.8438 14.5312 21.8438C14.8229 21.8438 15.1146 21.8438 15.4062 21.8438C16.1771 21.8438 16.8385 21.6615 17.3906 21.2969C17.9427 20.9323 18.3854 20.4062 18.7188 19.7188C19.0729 18.9479 19.25 18.1719 19.25 17.3906C19.25 16.6094 19.0729 15.8333 18.7188 15.0625C18.4062 14.3958 17.974 13.8958 17.4219 13.5625C16.8698 13.2292 16.2292 13.0625 15.5 13.0625C15.1875 13.0625 14.875 13.0625 14.5625 13.0625C14.25 13.0625 13.9375 13.0625 13.625 13.0625C13.2917 13.0625 13.0365 13.151 12.8594 13.3281C12.6823 13.5052 12.5938 13.7604 12.5938 14.0938C12.5938 14.6354 12.5938 15.1823 12.5938 15.7344C12.5938 16.2865 12.5938 16.8438 12.5938 17.4062C12.5938 17.9688 12.5938 18.5365 12.5938 19.1094C12.5938 19.6823 12.5938 20.25 12.5938 20.8125ZM14.75 14.9375C14.875 14.9375 15 14.9375 15.125 14.9375C15.25 14.9375 15.375 14.9375 15.5 14.9375C15.8542 14.9375 16.1615 15.0208 16.4219 15.1875C16.6823 15.3542 16.8854 15.6042 17.0312 15.9375C17.2396 16.4167 17.349 16.9062 17.3594 17.4062C17.3698 17.9062 17.2604 18.4062 17.0312 18.9062C16.8854 19.2604 16.6771 19.526 16.4062 19.7031C16.1354 19.8802 15.8021 19.9688 15.4062 19.9688C15.3021 19.9688 15.1927 19.9688 15.0781 19.9688C14.9635 19.9688 14.8542 19.9688 14.75 19.9688C14.6458 19.9896 14.5729 19.9792 14.5312 19.9375C14.4896 19.8958 14.4688 19.8229 14.4688 19.7188C14.4688 19.3229 14.4688 18.9375 14.4688 18.5625C14.4688 18.1875 14.4688 17.8125 14.4688 17.4375C14.4688 17.0625 14.4688 16.6875 14.4688 16.3125C14.4688 15.9375 14.4688 15.5729 14.4688 15.2188C14.4688 15.0938 14.4896 15.0156 14.5312 14.9844C14.5729 14.9531 14.6458 14.9375 14.75 14.9375ZM4.59375 21.0312C4.59375 21.3438 4.68229 21.5938 4.85938 21.7812C5.03646 21.9688 5.27083 22.0625 5.5625 22.0625C5.83333 22.0625 6.05208 21.9635 6.21875 21.7656C6.38542 21.5677 6.46875 21.3229 6.46875 21.0312C6.46875 20.7188 6.47396 20.4115 6.48438 20.1094C6.49479 19.8073 6.48958 19.5104 6.46875 19.2188C6.46875 19.1146 6.48958 19.0417 6.53125 19C6.57292 18.9583 6.64583 18.9375 6.75 18.9375C6.89583 18.9583 7.05208 18.9635 7.21875 18.9531C7.38542 18.9427 7.55208 18.9375 7.71875 18.9375C8.46875 18.8958 9.10938 18.6094 9.64062 18.0781C10.1719 17.5469 10.4583 16.8958 10.5 16.125C10.5417 15.4167 10.3281 14.7708 9.85938 14.1875C9.39062 13.6042 8.79167 13.25 8.0625 13.125C7.66667 13.0417 7.26042 13.0104 6.84375 13.0312C6.42708 13.0521 6.02083 13.0625 5.625 13.0625C5.29167 13.0625 5.03646 13.151 4.85938 13.3281C4.68229 13.5052 4.59375 13.7604 4.59375 14.0938C4.59375 14.6562 4.59375 15.224 4.59375 15.7969C4.59375 16.3698 4.59375 16.9375 4.59375 17.5C4.59375 18.1042 4.59375 18.6979 4.59375 19.2812C4.59375 19.8646 4.59375 20.4479 4.59375 21.0312ZM6.46875 16.0625C6.46875 15.875 6.46875 15.7083 6.46875 15.5625C6.46875 15.4167 6.46875 15.2708 6.46875 15.125C6.46875 15.0417 6.47917 14.9896 6.5 14.9688C6.52083 14.9479 6.57292 14.9375 6.65625 14.9375C6.80208 14.9375 6.95312 14.9375 7.10938 14.9375C7.26562 14.9375 7.42708 14.9375 7.59375 14.9375C7.88542 14.9583 8.13021 15.0729 8.32812 15.2812C8.52604 15.4896 8.625 15.7292 8.625 16C8.625 16.2917 8.52083 16.5417 8.3125 16.75C8.10417 16.9583 7.85417 17.0625 7.5625 17.0625C7.39583 17.0625 7.20833 17.0781 7 17.1094C6.79167 17.1406 6.64583 17.1146 6.5625 17.0312C6.4375 16.9271 6.39583 16.776 6.4375 16.5781C6.47917 16.3802 6.48958 16.2083 6.46875 16.0625ZM22.5312 21.9375C22.8021 21.9375 23.026 21.8438 23.2031 21.6562C23.3802 21.4688 23.4688 21.2292 23.4688 20.9375C23.4688 20.5417 23.4688 20.1562 23.4688 19.7812C23.4688 19.4062 23.4688 19.0312 23.4688 18.6562C23.4479 18.5104 23.4635 18.4167 23.5156 18.375C23.5677 18.3333 23.6562 18.3125 23.7812 18.3125C24.0104 18.3333 24.2344 18.3438 24.4531 18.3438C24.6719 18.3438 24.8958 18.3438 25.125 18.3438C25.25 18.3438 25.3594 18.3281 25.4531 18.2969C25.5469 18.2656 25.6458 18.2083 25.75 18.125C25.8958 18.0208 26 17.875 26.0625 17.6875C26.125 17.5 26.125 17.3125 26.0625 17.125C26 16.9375 25.8906 16.7812 25.7344 16.6562C25.5781 16.5312 25.3854 16.4688 25.1562 16.4688C24.9062 16.4479 24.6667 16.4375 24.4375 16.4375C24.2083 16.4375 23.9688 16.4479 23.7188 16.4688C23.6146 16.4688 23.5469 16.4479 23.5156 16.4062C23.4844 16.3646 23.4688 16.2917 23.4688 16.1875C23.4688 16 23.4688 15.8177 23.4688 15.6406C23.4688 15.4635 23.4688 15.2812 23.4688 15.0938C23.4688 14.9896 23.4844 14.9271 23.5156 14.9062C23.5469 14.8854 23.6146 14.875 23.7188 14.875C23.9896 14.875 24.2552 14.875 24.5156 14.875C24.776 14.875 25.0417 14.875 25.3125 14.875C25.6042 14.875 25.849 14.7865 26.0469 14.6094C26.2448 14.4323 26.3438 14.2083 26.3438 13.9375C26.3438 13.6667 26.25 13.4427 26.0625 13.2656C25.875 13.0885 25.625 13 25.3125 13C24.875 13 24.4323 13 23.9844 13C23.5365 13 23.0833 13 22.625 13C22.2917 13 22.0365 13.0885 21.8594 13.2656C21.6823 13.4427 21.5938 13.6979 21.5938 14.0312C21.5938 14.5938 21.5938 15.1615 21.5938 15.7344C21.5938 16.3073 21.5938 16.875 21.5938 17.4375C21.5938 18.0208 21.5938 18.599 21.5938 19.1719C21.5938 19.7448 21.5938 20.3229 21.5938 20.9062C21.5938 21.2188 21.6771 21.4688 21.8438 21.6562C22.0104 21.8438 22.2396 21.9375 22.5312 21.9375Z" fill="white"/>
</svg>
