<?xml version="1.0" standalone="no"?>
<!DOCTYPE svg PUBLIC "-//W3C//DTD SVG 20010904//EN"
 "http://www.w3.org/TR/2001/REC-SVG-20010904/DTD/svg10.dtd">
<svg version="1.0" xmlns="http://www.w3.org/2000/svg"
 width="1792.000000pt" height="2048.000000pt" viewBox="0 0 1792.000000 2048.000000"
 preserveAspectRatio="xMidYMid meet">

<g transform="translate(0.000000,2048.000000) scale(0.100000,-0.100000)"
fill="white" stroke="none">
<path d="M1710 16912 l0 -3567 -810 -810 -810 -810 0 -3697 0 -3698 810 0 810
0 0 -2165 0 -2165 7255 0 7255 0 0 2165 0 2165 810 0 810 0 0 3703 0 3702
-810 810 -810 810 0 1130 0 1130 -2433 2433 -2432 2432 -4823 0 -4822 0 0
-3568z m9080 388 l0 -2240 2243 -2 2242 -3 3 -1662 2 -1663 -6310 0 -6310 0 0
3905 0 3905 4065 0 4065 0 0 -2240z m-5975 -6960 c381 -32 680 -106 918 -227
286 -146 481 -342 625 -628 124 -247 171 -493 159 -835 -16 -462 -161 -815
-457 -1110 -265 -265 -617 -429 -1078 -501 -119 -19 -191 -22 -539 -26 l-403
-5 0 -774 0 -774 -650 0 -650 0 0 2445 0 2445 978 0 c565 0 1028 -4 1097 -10z
m4405 -13 c607 -82 1012 -244 1347 -537 309 -270 535 -679 638 -1155 49 -229
60 -356 60 -710 0 -346 -6 -431 -50 -670 -132 -714 -524 -1250 -1131 -1542
-197 -95 -491 -181 -744 -217 -221 -32 -400 -37 -1215 -34 l-810 3 -3 2430
c-1 1337 0 2436 3 2443 8 21 1745 11 1905 -11z m6110 -522 l0 -545 -945 0
-945 0 0 -460 0 -460 810 0 810 0 0 -545 0 -545 -810 0 -810 0 0 -895 0 -895
-650 0 -650 0 0 2445 0 2445 1595 0 1595 0 0 -545z m-50 -7170 l0 -1695 -6310
0 -6310 0 0 1695 0 1695 6310 0 6310 0 0 -1695z"/>
<path d="M4040 8679 l0 -641 343 4 c319 4 347 6 417 27 237 71 387 231 434
463 20 99 21 292 1 376 -53 225 -207 345 -509 397 -66 11 -165 15 -387 15
l-299 0 0 -641z"/>
<path d="M8610 7905 l0 -1408 148 6 c345 15 577 86 760 233 263 210 392 523
422 1022 20 332 -20 688 -99 890 -58 147 -124 255 -215 351 -188 197 -449 290
-868 308 l-148 6 0 -1408z"/>
</g>
</svg>
