<svg width="16" height="13" viewBox="0 0 16 13" fill="none" xmlns="http://www.w3.org/2000/svg">
<path d="M11.4806 7.29539H0.640137V4.89292H11.4806V7.29539ZM11.4806 7.29539L8.12882 10.5534C7.95694 10.7253 7.871 10.9362 7.871 11.1862C7.871 11.4362 7.96084 11.6511 8.14054 11.8308C8.16398 11.8542 8.19133 11.8777 8.22258 11.9011C8.25383 11.9246 8.28508 11.9441 8.31633 11.9597C8.36321 11.991 8.41204 12.0183 8.46283 12.0417C8.51361 12.0652 8.56635 12.0847 8.62104 12.1003H9.49999C9.59375 12.0769 9.68359 12.0398 9.76954 11.989C9.85548 11.9382 9.93361 11.8777 10.0039 11.8074L14.7854 6.76802C14.8245 6.72896 14.8577 6.68794 14.885 6.64497C14.9124 6.602 14.9378 6.55707 14.9612 6.5102C15.0081 6.43988 15.0433 6.36761 15.0667 6.29339C15.0901 6.21916 15.1019 6.13908 15.1019 6.05314C15.094 5.86563 15.0354 5.6957 14.9261 5.54335C14.8167 5.391 14.6761 5.27575 14.5042 5.19763L10.0039 0.474714C9.77735 0.248139 9.50585 0.12118 9.18943 0.0938346C8.873 0.0664894 8.58197 0.138759 8.31633 0.310643C8.10538 0.43565 7.9667 0.619253 7.90029 0.861454C7.83388 1.10365 7.86318 1.33023 7.98819 1.54118C8.01163 1.58024 8.03507 1.61345 8.05851 1.64079C8.08195 1.66814 8.10538 1.69744 8.12882 1.72869L11.4806 4.89292V7.29539Z" fill="white"/>
</svg>
