<svg width="31" height="31" viewBox="0 0 31 31" fill="none" xmlns="http://www.w3.org/2000/svg">
<g filter="url(#filter0_d_1283_3977)">
<rect x="4.7998" y="0.978455" width="22" height="22" rx="11" fill="#1B1A1A" shape-rendering="crispEdges"/>
<path d="M19.3783 12.601L13.2204 18.7589C13.0726 18.9067 12.8932 18.9805 12.6822 18.9805C12.4711 18.9805 12.2917 18.9067 12.1439 18.7589L11.4316 18.0307C11.2838 17.883 11.21 17.7062 11.21 17.5004C11.21 17.2946 11.2838 17.1126 11.4316 16.9543L16.3073 12.0628L11.4316 7.17123C11.2838 7.01293 11.21 6.83088 11.21 6.62509C11.21 6.41929 11.2838 6.24252 11.4316 6.09477L12.1439 5.36659C12.2917 5.21884 12.4711 5.14496 12.6822 5.14496C12.8932 5.14496 13.0726 5.21884 13.2204 5.36659L19.3783 11.5245C19.5261 11.6723 19.6 11.8517 19.6 12.0628C19.6 12.2738 19.5261 12.4532 19.3783 12.601Z" fill="white"/>
</g>
<defs>
<filter id="filter0_d_1283_3977" x="0.799805" y="0.978455" width="30" height="30" filterUnits="userSpaceOnUse" color-interpolation-filters="sRGB">
<feFlood flood-opacity="0" result="BackgroundImageFix"/>
<feColorMatrix in="SourceAlpha" type="matrix" values="0 0 0 0 0 0 0 0 0 0 0 0 0 0 0 0 0 0 127 0" result="hardAlpha"/>
<feOffset dy="4"/>
<feGaussianBlur stdDeviation="2"/>
<feComposite in2="hardAlpha" operator="out"/>
<feColorMatrix type="matrix" values="0 0 0 0 0 0 0 0 0 0 0 0 0 0 0 0 0 0 0.25 0"/>
<feBlend mode="normal" in2="BackgroundImageFix" result="effect1_dropShadow_1283_3977"/>
<feBlend mode="normal" in="SourceGraphic" in2="effect1_dropShadow_1283_3977" result="shape"/>
</filter>
</defs>
</svg>
