<svg width="32" height="33" viewBox="0 0 32 33" fill="none" xmlns="http://www.w3.org/2000/svg">
<path d="M15.9999 10.6808V17.6808M28.1066 11.7875V20.9075C28.1066 22.4008 27.3066 23.7875 26.0132 24.5475L18.0932 29.1208C16.7999 29.8675 15.1999 29.8675 13.8932 29.1208L5.97322 24.5475C5.33559 24.1778 4.80647 23.6468 4.43902 23.0079C4.07157 22.3689 3.87874 21.6446 3.87989 20.9075V11.7875C3.87989 10.2942 4.67989 8.90749 5.97322 8.14749L13.8932 3.57416C15.1866 2.82749 16.7866 2.82749 18.0932 3.57416L26.0132 8.14749C27.3066 8.90749 28.1066 10.2808 28.1066 11.7875Z" stroke="#0065E7" stroke-width="1.5" stroke-linecap="round" stroke-linejoin="round"/>
<path d="M16 21.9478V22.0811" stroke="#0065E7" stroke-width="2" stroke-linecap="round" stroke-linejoin="round"/>
</svg>
