<svg width="127" height="29" viewBox="0 0 127 29" fill="none" xmlns="http://www.w3.org/2000/svg">
<path d="M34.507 0.862589C34.3192 0.732616 34.2628 0.639778 34.2628 0.54694C34.2628 0.454102 34.3004 0.454102 34.3755 0.454102C34.4319 0.454102 34.5446 0.472669 34.7136 0.491237C34.7136 0.509804 34.8638 0.509804 35.1455 0.528372L35.8967 0.584075H40.9674C43.4464 0.584075 44.8925 1.86524 44.8925 4.05622C44.8925 5.74588 43.9347 6.97134 42.3947 7.24985C41.9628 7.32412 41.3618 7.36126 40.6481 7.36126H37.3616V11.0934C37.7372 11.2419 37.8687 11.3347 37.8687 11.5018C37.8687 11.5761 37.7935 11.6132 37.6996 11.6132C37.6245 11.6132 37.4743 11.5947 37.3053 11.5761C37.0987 11.5575 36.7418 11.539 36.1972 11.5204C35.9155 11.5204 35.7277 11.5204 35.6338 11.5204C35.3333 11.5204 34.9014 11.539 34.3567 11.5947H34.3192C34.2253 11.5947 34.1689 11.5575 34.1689 11.5018C34.1689 11.3533 34.2441 11.279 34.7324 10.9819V1.04827C34.6572 0.955427 34.5633 0.918292 34.507 0.862589ZM40.7045 5.20741C41.8125 5.20741 42.3759 4.79893 42.3759 4.00052C42.3759 3.10927 41.775 2.68222 40.4791 2.68222H40.1786H37.3616V5.20741H40.7045Z" fill="white"/>
<path d="M48.7426 8.9766L47.9538 11.019C48.2731 11.1862 48.3858 11.2976 48.3858 11.4461C48.3858 11.5761 48.3482 11.5761 48.2731 11.5761C48.2355 11.5575 48.1979 11.5761 48.1604 11.5575C47.5406 11.4832 47.3716 11.4832 46.8833 11.4832C46.1509 11.4832 45.2494 11.5018 44.9865 11.5389C44.9114 11.5389 44.8551 11.5575 44.8175 11.5575C44.7236 11.5575 44.686 11.5018 44.686 11.4461C44.686 11.3347 44.7612 11.2233 44.8926 11.1676L45.1555 11.0376C45.2307 11.0005 45.2494 10.9448 45.3809 10.6291L49.3811 1.04823C49.306 0.973956 49.2872 0.936821 49.2496 0.899686C49.137 0.78828 49.0994 0.695442 49.0994 0.658307C49.0994 0.584036 49.1745 0.528333 49.3248 0.528333C49.4374 0.528333 49.6816 0.528333 50.0009 0.546901C50.245 0.584036 50.6206 0.584036 51.1089 0.584036C51.3155 0.584036 51.5221 0.584036 51.5972 0.584036L52.4611 0.546901C52.8742 0.546901 53.1372 0.528333 53.1935 0.528333C53.3062 0.509766 53.4001 0.509766 53.4189 0.509766C53.5503 0.509766 53.6067 0.565469 53.6067 0.676874C53.6067 0.78828 53.5503 0.862551 53.3062 1.06679L57.4379 11.019C57.8886 11.279 58.0013 11.3904 58.0013 11.5204C58.0013 11.5946 57.9449 11.6132 57.8322 11.6132C57.7759 11.6132 57.5318 11.6132 57.0622 11.5575C56.912 11.5575 56.574 11.5389 55.9542 11.5389C55.4471 11.5389 55.1467 11.5575 55.0528 11.5575L54.4706 11.5946H54.3954H54.3767C54.2452 11.5946 54.1889 11.5575 54.1889 11.5018C54.1889 11.3533 54.3579 11.2047 54.6584 11.0562L53.8696 8.9766H48.7426ZM53.0808 7.027L51.3343 2.47793L49.4938 7.027H53.0808Z" fill="white"/>
<path d="M59.7662 1.08538C59.353 0.936834 59.2215 0.806861 59.2215 0.621184C59.2215 0.528346 59.2591 0.491211 59.4093 0.491211C59.4281 0.491211 59.4657 0.491211 59.4845 0.491211L59.9915 0.565481L60.893 0.602617H66.6773C67.7666 0.602617 68.4427 0.73259 69.0061 1.04824C70.0202 1.62384 70.5836 2.7379 70.5836 4.03763C70.5836 5.07742 70.1705 6.08007 69.5319 6.5814C68.8558 7.11986 68.4802 7.24983 67.2971 7.39837L69.9263 11.0376L70.2456 11.1305C70.5461 11.2419 70.7151 11.3718 70.7151 11.4833C70.7151 11.5575 70.64 11.6132 70.4897 11.6132C70.4709 11.6132 70.4334 11.6132 70.4146 11.6132L69.9826 11.5575C69.7573 11.539 69.4944 11.5204 69.1375 11.5204C68.3675 11.5204 67.4661 11.5575 67.1844 11.5947C67.0717 11.6132 66.959 11.6132 66.9402 11.6132C66.8088 11.6132 66.7337 11.5575 66.7337 11.4647C66.7337 11.3718 66.8088 11.2604 66.9966 11.149L64.311 7.34267H62.2264V11.0191C62.6583 11.149 62.8274 11.2604 62.8274 11.4833C62.8274 11.5575 62.8086 11.5575 62.7522 11.5575H62.6396L62.1137 11.5204L61.3813 11.4833C61.1559 11.4647 60.9681 11.4647 60.8179 11.4647C60.7052 11.4647 60.3671 11.4833 59.7662 11.5018C59.5408 11.5204 59.3906 11.539 59.3154 11.539C59.2967 11.539 59.2967 11.539 59.2779 11.539C59.2028 11.5204 59.1464 11.5204 59.1464 11.4647C59.1276 11.2976 59.2967 11.1862 59.7662 11.0376V1.08538ZM66.452 5.24453C67.5224 5.24453 68.0295 4.83604 68.0295 4.00049C68.0295 3.10925 67.4661 2.71933 66.1515 2.71933H62.1888V5.24453H66.452Z" fill="white"/>
<path d="M75.9174 8.9766L75.1286 11.019C75.4479 11.1862 75.5606 11.2976 75.5606 11.4461C75.5606 11.5761 75.523 11.5761 75.4479 11.5761C75.4103 11.5575 75.3728 11.5761 75.3352 11.5575C74.7154 11.4832 74.5464 11.4832 74.0581 11.4832C73.3257 11.4832 72.4242 11.5018 72.1613 11.5389C72.0862 11.5389 72.0299 11.5575 71.9923 11.5575C71.8984 11.5575 71.8608 11.5018 71.8608 11.4461C71.8608 11.3347 71.936 11.2233 72.0674 11.1676L72.3303 11.0376C72.4055 11.0005 72.4243 10.9448 72.5557 10.6291L76.5559 1.04823C76.4808 0.973956 76.462 0.936821 76.4244 0.899686C76.3118 0.78828 76.2742 0.695442 76.2742 0.658307C76.2742 0.584036 76.3493 0.528333 76.4996 0.528333C76.6123 0.528333 76.8564 0.528333 77.1757 0.546901C77.4386 0.584036 77.833 0.584036 78.3213 0.584036C78.5278 0.584036 78.7344 0.584036 78.8096 0.584036L79.6734 0.546901C80.0866 0.546901 80.3495 0.528333 80.4059 0.528333C80.5186 0.509766 80.6125 0.509766 80.6312 0.509766C80.7627 0.509766 80.819 0.565469 80.819 0.676874C80.819 0.78828 80.7627 0.862551 80.5186 1.06679L84.6502 11.019C85.101 11.279 85.2136 11.3904 85.2136 11.5204C85.2136 11.5946 85.1573 11.6132 85.0446 11.6132C84.9883 11.6132 84.7441 11.6132 84.2746 11.5575C84.1244 11.5575 83.7863 11.5389 83.1666 11.5389C82.6595 11.5389 82.359 11.5575 82.2651 11.5575L81.6829 11.5946H81.6078H81.589C81.4576 11.5946 81.4012 11.5575 81.4012 11.5018C81.4012 11.3533 81.5703 11.2047 81.8707 11.0562L81.082 8.9766H75.9174ZM80.2744 7.027L78.5278 2.47793L76.6874 7.027H80.2744Z" fill="white"/>
<path d="M93.5711 7.08305C93.4208 7.41727 93.3082 7.54724 93.1579 7.54724C93.0828 7.54724 93.064 7.49154 93.064 7.38013V7.343C93.064 7.32443 93.0828 7.23159 93.0828 7.04591C93.0828 6.95307 93.1016 6.80453 93.1016 6.63742C93.1204 6.37748 93.1391 6.15467 93.1204 6.04326L93.1016 5.28199L93.0828 4.8735V4.85493C93.0828 4.65069 93.1204 4.57642 93.1955 4.57642C93.3457 4.57642 93.4584 4.70639 93.6462 5.05918H98.2474C98.3225 5.05918 98.4727 5.05918 98.6606 5.05918H98.6793C98.8108 5.05918 98.8859 5.09631 98.8859 5.17058C98.8859 5.31912 98.7544 5.43053 98.3976 5.57907V8.97695C98.623 8.97695 98.6981 9.01408 98.6981 9.12549C98.6981 9.25546 98.6418 9.32973 98.454 9.49684L98.0784 9.79392C96.4633 11.0937 94.3786 11.8178 92.3316 11.8178C88.6694 11.8178 85.9463 9.31116 85.9463 5.91329C85.9463 2.45971 88.5755 0.0273438 92.3128 0.0273438C94.0218 0.0273438 95.6933 0.52867 96.9703 1.41992C97.0642 1.49419 97.2145 1.58703 97.4023 1.717C97.5525 1.6613 97.684 1.64273 97.8154 1.62416H97.8342C97.9469 1.62416 98.0408 1.69843 98.0408 1.7727C98.0408 1.80984 98.0408 1.80984 98.0408 1.82841L97.7591 2.16262L96.8764 3.36952L96.5759 3.79658C96.4445 3.96368 96.3694 4.05652 96.3318 4.09366C96.3318 4.09366 96.313 4.09366 96.2755 4.09366C96.144 4.11223 96.0689 3.92655 96.0689 3.6109C96.0877 3.5552 96.0876 3.5552 96.0876 3.53663C95.2238 2.84963 94.8481 2.62681 94.0782 2.38543C93.5899 2.23689 93.0828 2.16262 92.5757 2.16262C90.2282 2.16262 88.5943 3.70374 88.5943 5.93185C88.5943 8.04856 90.3033 9.71965 92.4443 9.71965C93.665 9.71965 94.9045 9.19976 95.9374 8.30851V7.08305H93.5711Z" fill="white"/>
<path d="M112.839 6.00605C112.839 9.34822 110.172 11.7806 106.51 11.7806C102.792 11.7806 100.163 9.40393 100.163 6.00605C100.163 2.62674 102.811 0.138672 106.416 0.138672C110.097 0.138672 112.839 2.6453 112.839 6.00605ZM102.811 5.91321C102.811 8.04849 104.369 9.62674 106.492 9.62674C108.539 9.62674 110.172 7.99278 110.172 5.93178C110.172 3.87077 108.539 2.32965 106.341 2.32965C104.332 2.32965 102.811 3.8522 102.811 5.91321Z" fill="white"/>
<path d="M115.018 1.06678C114.643 0.899673 114.549 0.806835 114.549 0.639726C114.549 0.52832 114.586 0.52832 114.661 0.52832C114.699 0.52832 114.718 0.52832 114.736 0.52832L114.981 0.565456C115.3 0.621159 115.807 0.639726 116.464 0.639726C117.253 0.639726 117.854 0.602591 118.267 0.565456C118.399 0.565456 118.511 0.546888 118.568 0.546888C118.718 0.546888 118.831 0.621159 118.831 0.713997C118.831 0.751132 118.812 0.788267 118.718 0.955376C118.699 0.992511 118.662 1.02965 118.643 1.10392L124.033 8.19675L124.014 1.14105C123.638 0.992511 123.488 0.862538 123.488 0.676861C123.488 0.602591 123.563 0.565456 123.638 0.565456C123.676 0.565456 123.751 0.565456 123.845 0.584023C123.939 0.602591 124.108 0.621158 124.314 0.639726C124.784 0.676861 125.178 0.695429 125.479 0.695429C125.854 0.695429 126.192 0.676861 126.493 0.621159C126.624 0.602591 126.718 0.602591 126.775 0.602591C126.887 0.602591 126.981 0.658294 126.981 0.751132C126.981 0.899673 126.887 0.992511 126.624 1.08535C126.568 1.12248 126.493 1.15962 126.38 1.17819L126.361 11.1304C126.756 11.2604 126.887 11.3718 126.887 11.5389C126.887 11.6132 126.831 11.6503 126.737 11.6503L126.493 11.6318H125.892L125.272 11.6132L124.333 11.5946H124.127L123.563 11.6318L123.15 11.6503H123.131C123.019 11.6503 122.943 11.6132 122.943 11.5389C122.943 11.4647 122.981 11.4275 123.037 11.2976C123.075 11.2604 123.112 11.2233 123.15 11.1304L117.328 3.25776V11.0376C117.76 11.279 117.892 11.3718 117.892 11.5204C117.892 11.5946 117.816 11.6503 117.685 11.6503C117.647 11.6503 117.572 11.6318 117.516 11.6318L117.028 11.5575L116.314 11.5389L115.018 11.5761C114.812 11.5761 114.68 11.5946 114.605 11.5946H114.567C114.436 11.5946 114.361 11.5575 114.361 11.4832C114.361 11.3347 114.492 11.2418 114.962 11.0562V1.06678H115.018Z" fill="white"/>
<path d="M39.2397 25.9108C40.7985 25.9108 41.9065 25.3723 41.9065 24.5925C41.9065 23.8683 41.1365 23.5155 38.9204 23.2185C36.9861 22.9585 36.3475 22.7728 35.54 22.2158C34.8076 21.7145 34.4132 20.9718 34.4132 20.0805C34.4132 18.9665 35.0893 17.9081 36.1973 17.2768C36.9673 16.8498 37.8875 16.6455 39.0895 16.6455C40.6107 16.6455 41.4558 16.8312 43.4653 17.5368C43.6719 17.3696 43.7658 17.3325 43.8972 17.3325C43.9911 17.3325 44.0475 17.3882 44.0475 17.4625C44.0475 17.5368 44.0099 17.5925 43.9536 17.7039L43.7658 18.0381L43.5216 18.558C43.3901 18.8179 43.315 19.0036 43.2962 19.115C43.1272 19.672 43.0521 19.8391 42.9582 19.8391C42.8455 19.8391 42.7328 19.6906 42.6202 19.375C41.099 18.8365 40.4792 18.7065 39.5402 18.7065C38.019 18.7065 36.9673 19.2078 36.9673 19.9506C36.9673 20.5447 37.5495 20.8789 38.9204 21.0646C41.2868 21.3988 42.4136 21.6959 43.2587 22.2158C43.9723 22.68 44.4043 23.5341 44.4043 24.4439C44.4043 26.5049 42.4511 27.8418 39.4275 27.8418C38.2443 27.8418 36.31 27.6376 35.2771 27.3962C35.108 27.3405 34.8451 27.2848 34.5258 27.1919C34.3756 27.3962 34.3005 27.489 34.1878 27.489C34.0751 27.489 34 27.4147 34 27.359V27.3405C34 27.2848 34.0188 27.2291 34.0563 27.1548C34.1127 27.0434 34.169 26.8577 34.2629 26.6163C34.3756 26.2264 34.4695 25.9293 34.5258 25.7622C34.6385 25.428 34.7137 25.1866 34.7324 25.0381C34.7888 24.741 34.8451 24.611 34.939 24.611C35.1268 24.611 35.2207 24.8153 35.2395 25.2052C37.1363 25.7808 37.8875 25.9108 39.2397 25.9108Z" fill="white"/>
<path d="M46.395 17.4253C46.3198 17.3882 46.2447 17.351 46.1884 17.351C45.9442 17.2582 45.8503 17.1839 45.8503 17.054C45.8503 16.9425 45.9254 16.8683 46.0569 16.8683C46.0757 16.8683 46.132 16.8683 46.1696 16.8683C46.3762 16.9054 46.5076 16.9054 46.6015 16.9054H56.48C56.5739 16.7754 56.6678 16.7012 56.7617 16.7012C56.8744 16.7012 56.9495 16.7754 56.9495 16.9054C56.9495 16.9611 56.9495 17.054 56.9307 17.1839C56.9119 17.3325 56.8931 17.5367 56.8931 17.8524C56.8931 17.9452 56.8931 18.0566 56.9119 18.2051V18.855V18.8736C56.9119 18.985 56.9119 19.0778 56.9307 19.1335C56.9495 19.2078 56.9495 19.2635 56.9495 19.3006C56.9495 19.3749 56.9119 19.3749 56.8556 19.3749C56.7241 19.3935 56.6114 19.2821 56.4988 18.985H48.9491V21.1203H55.879C55.9917 20.8046 56.0856 20.6932 56.217 20.6932C56.2922 20.6932 56.3297 20.7489 56.3297 20.8603C56.3297 20.8789 56.3297 20.9346 56.3297 21.0089C56.2922 21.1574 56.2922 21.3059 56.2922 21.4173L56.2734 22.0858C56.2546 22.3272 56.2546 22.5128 56.2546 22.6057C56.2546 22.7356 56.2734 22.8099 56.3485 23.4227C56.3485 23.4784 56.3673 23.5155 56.3673 23.5712C56.3673 23.664 56.3297 23.664 56.2734 23.664C56.1044 23.6826 55.9917 23.5712 55.8414 23.237H48.9115V25.6136H56.5927C56.7053 25.3351 56.7992 25.2237 56.9683 25.2237C57.0622 25.2237 57.0997 25.2794 57.0997 25.3723C57.0997 25.4094 57.0997 25.4651 57.0997 25.5579C57.0622 25.725 57.0622 25.9478 57.0622 26.2821C57.0622 26.5977 57.0434 26.802 57.0434 26.8948C57.0434 27.2104 57.0434 27.4147 57.0809 27.5447C57.0997 27.6746 57.1185 27.7489 57.1185 27.8046C57.1185 27.8975 57.0434 27.9717 56.9683 27.9717C56.8556 27.9717 56.7617 27.916 56.6678 27.7675H46.3198L46.0381 27.8046C45.9254 27.8046 45.8315 27.7489 45.8315 27.6004C45.8315 27.4333 46.0006 27.3033 46.395 27.1733V17.4253Z" fill="white"/>
<path d="M67.7669 24.1841C67.7669 24.0727 67.8233 23.9799 67.8608 23.9799C67.9735 23.9799 68.4054 24.3698 68.9688 24.9825C69.213 25.2796 69.5323 25.5395 69.9079 25.7809C69.983 25.8366 70.0581 25.9109 70.0581 25.948C70.0581 26.0594 69.8891 26.1523 69.6825 26.1523C69.6074 26.1337 69.5323 26.1337 69.4384 26.1151C68.0486 27.3592 66.6777 27.8791 64.856 27.8791C61.2877 27.8791 58.6772 25.4838 58.6772 22.1788C58.6772 18.8738 61.3065 16.46 64.8935 16.46C66.4335 16.46 67.8608 16.9242 69.0064 17.7783C69.1191 17.8525 69.3069 18.0011 69.5323 18.2239C69.9266 18.2425 70.0769 18.2982 70.0769 18.4096C70.0769 18.4838 70.0205 18.5581 69.9454 18.6138L69.4384 19.0223L68.8937 19.5422C68.5181 19.8764 68.3115 20.0806 68.2928 20.1178C68.1425 20.322 68.0674 20.3963 67.9735 20.3963C67.8984 20.3963 67.8232 20.3035 67.8232 20.1735C67.8232 20.0992 67.8608 19.9878 67.9359 19.7836C67.0345 18.9666 66.0203 18.5581 64.9499 18.5581C62.8465 18.5581 61.1938 20.1549 61.1938 22.2159C61.1938 24.2769 62.7901 25.8366 64.9499 25.8366C66.0391 25.8366 66.8091 25.5024 67.8232 24.574C67.8045 24.4069 67.7669 24.2955 67.7669 24.1841Z" fill="white"/>
<path d="M74.4904 23.2183C74.4904 24.1838 74.5468 24.5923 74.7158 24.8522C75.1853 25.5764 76.237 25.9848 77.5141 25.9848C78.9038 25.9848 79.9743 25.5578 80.3687 24.8522C80.5752 24.518 80.6316 24.1281 80.6316 23.2183V17.4623C80.2372 17.3509 80.0682 17.2209 80.0682 17.0167C80.0682 16.961 80.1245 16.9424 80.2184 16.9424C80.256 16.9424 80.3499 16.9424 80.5565 16.961C81.0635 16.9981 81.4767 17.0167 81.8147 17.0167L82.6974 16.9981C82.9228 16.9981 83.0918 16.9795 83.1669 16.961C83.3172 16.9424 83.4111 16.9238 83.4862 16.9238C83.5613 16.9238 83.6364 16.9981 83.6364 17.0724C83.6364 17.2395 83.5237 17.3323 83.1294 17.4994V24.2024C83.1294 25.7063 82.6223 26.6904 81.5518 27.2289C80.5377 27.7488 79.1292 28.0273 77.6267 28.0273C75.129 28.0273 73.1195 27.266 72.387 26.022C72.0865 25.5207 71.9926 24.9822 71.9926 23.9238V17.518C71.5983 17.3138 71.4668 17.1838 71.4668 16.9981C71.4856 16.9053 71.5231 16.9053 71.5983 16.9053C71.6546 16.9053 71.7297 16.9053 71.8048 16.9238C72.049 16.9795 72.4809 16.9981 73.0631 16.9981C73.6453 16.9981 74.1899 16.961 74.6782 16.9238C74.7346 16.9053 74.7533 16.9238 74.7721 16.9053C74.8848 16.9053 74.9599 16.961 74.9599 17.0352C74.9599 17.2209 74.7909 17.3509 74.4716 17.4437V23.2183H74.4904Z" fill="white"/>
<path d="M85.9085 17.4809C85.5141 17.3323 85.3827 17.2024 85.3827 17.0167C85.3827 16.9239 85.4202 16.8867 85.5705 16.8867C85.5893 16.8867 85.6268 16.8867 85.6456 16.8867L86.1339 16.961L86.9978 16.9981H92.6506C93.7211 16.9981 94.3784 17.1281 94.9231 17.4437C95.9184 18.0193 96.463 19.0777 96.463 20.3774C96.463 21.3801 96.0687 22.3827 95.4489 22.8655C94.7916 23.3854 94.4348 23.5154 93.2516 23.6639L95.8245 27.2103L96.1438 27.3032C96.4443 27.4146 96.6133 27.526 96.6133 27.6374C96.6133 27.7116 96.5382 27.7674 96.4067 27.7674C96.3879 27.7674 96.3504 27.7674 96.3316 27.7674L95.8996 27.7117C95.693 27.6931 95.4301 27.6745 95.0733 27.6745C94.3221 27.6745 93.4394 27.7116 93.1577 27.7488C93.045 27.7674 92.9511 27.7674 92.9136 27.7674C92.7821 27.7674 92.707 27.7117 92.707 27.6188C92.707 27.526 92.7821 27.4146 92.9699 27.3032L90.3594 23.5711H88.3124V27.1732C88.7443 27.3032 88.9134 27.4146 88.9134 27.6374C88.9134 27.7116 88.8946 27.7117 88.8382 27.7117H88.7256L88.2185 27.6745L87.5048 27.6374C87.2983 27.6188 87.1105 27.6188 86.9414 27.6188C86.8287 27.6188 86.4907 27.6374 85.9273 27.6559C85.7207 27.6745 85.5705 27.6931 85.4766 27.6931C85.4578 27.6931 85.4578 27.6931 85.439 27.6931C85.3639 27.6745 85.3075 27.6745 85.3075 27.6188C85.2888 27.4517 85.4578 27.3403 85.9085 27.1918V17.4809ZM92.4441 21.5286C93.4958 21.5286 93.984 21.1387 93.984 20.3032C93.984 19.4491 93.4206 19.0591 92.1624 19.0591H88.2936V21.5286H92.4441Z" fill="white"/>
<path d="M98.4729 17.4623C98.1348 17.3323 97.9282 17.1652 97.9282 17.0352C97.9282 16.961 98.0033 16.9238 98.0972 16.9238H98.1348L98.5668 16.9795L99.1677 16.9981H100.126L101.083 16.9424C101.177 16.9238 101.234 16.9238 101.234 16.9238H101.309C101.459 16.9238 101.534 16.9795 101.534 17.0538C101.534 17.2023 101.384 17.2952 100.971 17.4623V27.2289C101.327 27.3031 101.553 27.4702 101.553 27.6374C101.553 27.7116 101.478 27.7488 101.365 27.7488C101.309 27.7488 101.271 27.7488 100.952 27.7116C100.633 27.6745 100.257 27.6559 99.8063 27.6559C99.2992 27.6559 98.717 27.6931 98.3226 27.7302C98.2099 27.7488 98.1348 27.7488 98.116 27.7488C97.9846 27.7488 97.9282 27.7116 97.9282 27.6374C97.9282 27.4517 98.0033 27.396 98.4916 27.1732V17.4623H98.4729Z" fill="white"/>
<path d="M109.572 27.1547C109.928 27.3589 110.097 27.4889 110.097 27.656C110.097 27.7303 110.06 27.7303 109.985 27.7303H109.966L109.44 27.6932C108.971 27.656 108.557 27.6375 108.163 27.6375C107.731 27.6375 107.562 27.656 106.942 27.7117C106.717 27.7303 106.642 27.7489 106.604 27.7489C106.51 27.7489 106.454 27.7117 106.454 27.656C106.454 27.4704 106.642 27.3404 107.074 27.1918V19.0592H103.374C103.299 19.282 103.205 19.3934 103.055 19.3934C102.98 19.3934 102.923 19.3192 102.923 19.1892C102.942 19.1149 102.942 19.1149 102.942 19.0406C102.961 18.7993 102.961 18.6507 102.961 18.595V17.8523V17.3881L102.923 17.0539C102.923 17.0168 102.923 17.0353 102.923 16.9982C102.923 16.8311 102.98 16.7754 103.111 16.7754C103.205 16.7754 103.28 16.8311 103.355 16.9796H113.271C113.328 16.9054 113.365 16.9054 113.403 16.9054C113.515 16.8311 113.572 16.8125 113.628 16.8125C113.703 16.8125 113.778 16.8868 113.778 16.9982C113.778 17.0353 113.778 17.0353 113.778 17.0725C113.741 17.3139 113.741 17.7409 113.741 18.1308C113.741 18.6693 113.76 19.0592 113.797 19.2078C113.797 19.282 113.816 19.3377 113.816 19.3749C113.816 19.4677 113.76 19.4677 113.703 19.4677C113.609 19.4677 113.534 19.412 113.44 19.2635C113.403 19.2263 113.365 19.1706 113.309 19.0778H109.572V27.1547Z" fill="white"/>
<path d="M123.545 17.4994C123.244 17.3323 123.113 17.1838 123.113 17.0352C123.113 16.961 123.188 16.9053 123.282 16.9053C123.301 16.9053 123.357 16.9238 123.47 16.9238C123.526 16.9424 123.657 16.9424 123.883 16.961L124.953 16.9981L126.08 16.9795C126.381 16.961 126.55 16.961 126.643 16.9424C126.719 16.9238 126.794 16.9238 126.85 16.9238C126.925 16.9238 127 16.9795 127 17.0724C127 17.2581 126.812 17.388 126.399 17.4994L122.211 24.1095V27.266C122.568 27.396 122.718 27.5074 122.718 27.6931C122.718 27.7673 122.662 27.7859 122.549 27.7859C122.531 27.7859 122.474 27.7859 122.437 27.7859C122.061 27.7488 121.554 27.7302 120.915 27.7302C120.559 27.7302 120.258 27.7488 119.976 27.7488H119.582C119.413 27.7488 119.3 27.7488 119.263 27.7673C119.263 27.7673 119.244 27.7673 119.225 27.7673C119.15 27.7488 119.113 27.7488 119.113 27.6559C119.094 27.5074 119.188 27.4517 119.638 27.2289L119.62 24.1095L115.563 17.4994C115.094 17.3509 114.906 17.2209 114.906 17.0167C114.906 16.9424 114.962 16.9053 115.056 16.9053C115.094 16.9053 115.169 16.9238 115.263 16.9238C115.638 16.9795 116.126 16.9981 116.727 16.9795C117.46 16.961 117.948 16.961 118.117 16.961H118.587L118.756 16.9424H118.774C118.887 16.9424 118.962 16.9981 118.962 17.0724C118.962 17.2209 118.831 17.3323 118.493 17.518L121.047 21.8071L123.545 17.4994Z" fill="white"/>
<path d="M19.5547 18.6943L10.3333 28.0278H1V18.6943H19.5547Z" fill="white"/>
<path d="M10.3333 0.0273438H1V9.36076H10.3333V0.0273438Z" fill="white"/>
<path d="M28.9998 0.0273438V9.13676L19.6665 18.5822V0.0273438H28.9998Z" fill="white"/>
<path d="M19.6671 18.582V18.6934H19.5547L19.6671 18.582Z" fill="white"/>
</svg>
